<svg version="1.2" xmlns="http://www.w3.org/2000/svg" viewBox="0 0 129 28" width="129" height="28">
	<title>logo-svg</title>
	<style>
		tspan { white-space:pre } 
		.s0 { fill: #f2125e } 
		.s1 { opacity: .4;fill: #ffffff } 
		.s2 { fill: #ffffff } 
		.t3 { font-size: 14px;fill: #f2125e;font-weight: 700;font-family: "DejaVuSans-Bold", "DejaVu Sans" } 
	</style>
	<g id="Layer">
		<g id="Layer">
			<path id="Layer" class="s0" d="m14 28c-7.7 0-14-6.3-14-14 0-7.7 6.3-14 14-14 7.7 0 14 6.3 14 14 0 7.7-6.3 14-14 14z"/>
			<g id="Layer">
				<path id="Layer" fill-rule="evenodd" class="s1" d="m6.1 18.9v-5.3c0-1.2 0.5-2.4 1.3-3.2 0.9-0.9 2-1.3 3.2-1.3 1.2 0 2.4 0.4 3.2 1.3 0.9 0.8 1.4 2 1.4 3.2v5.3c0 0-9.1 0-9.1 0z"/>
				<path id="Layer" fill-rule="evenodd" class="s2" d="m20.9 9v9.8h-14.9z"/>
			</g>
		</g>
	</g>
	<text id="Social Media" style="transform: matrix(1,0,0,1,29,20)" >
		<tspan x="0" y="0" class="t3">S</tspan><tspan  y="0" class="t3">o</tspan><tspan  y="0" class="t3">c</tspan><tspan  y="0" class="t3">i</tspan><tspan  y="0" class="t3">a</tspan><tspan  y="0" class="t3">l</tspan><tspan  y="0" class="t3"> </tspan><tspan  y="0" class="t3">M</tspan><tspan  y="0" class="t3">e</tspan><tspan  y="0" class="t3">d</tspan><tspan  y="0" class="t3">i</tspan><tspan  y="0" class="t3">a</tspan><tspan  y="0" class="t3">
</tspan>
	</text>
</svg>